<svg width="11" height="7" viewBox="0 0 11 7" fill="none" xmlns="http://www.w3.org/2000/svg">
<path d="M5.68559 6.38991C5.75234 6.45667 5.82924 6.48997 5.91607 6.48997C6.0029 6.48997 6.07965 6.4567 6.14637 6.38991L10.8161 1.7204C10.8828 1.65361 10.916 1.57675 10.916 1.48992C10.916 1.40309 10.8826 1.32619 10.8161 1.25944L10.3151 0.758333C10.2484 0.691545 10.1715 0.658203 10.0845 0.658203C9.99782 0.658203 9.92096 0.691545 9.85421 0.758333L5.91607 4.69633L1.9781 0.758333C1.91132 0.691545 1.83445 0.658203 1.74763 0.658203C1.66076 0.658203 1.5839 0.691545 1.51715 0.758333L1.01625 1.25944C0.949357 1.32619 0.916016 1.40295 0.916016 1.48992C0.916016 1.57689 0.949463 1.65364 1.01625 1.7204L5.68559 6.38991Z" fill="white"/>
</svg>
