<svg width="36" height="35" viewBox="0 0 36 35" fill="none" xmlns="http://www.w3.org/2000/svg">
<path d="M16.8492 20.2481C17.085 20.4839 17.3567 20.6015 17.6634 20.6015C17.9701 20.6015 18.2413 20.484 18.477 20.2481L34.9734 3.75235C35.2092 3.51641 35.3264 3.24489 35.3264 2.93815C35.3264 2.63142 35.2085 2.35977 34.9734 2.12396L33.2037 0.353724C32.9679 0.117784 32.6962 0 32.3891 0C32.0828 0 31.8112 0.117784 31.5754 0.353724L17.6634 14.2653L3.75198 0.353724C3.51604 0.117784 3.24452 0 2.93778 0C2.63092 0 2.3594 0.117784 2.12358 0.353724L0.354096 2.12396C0.117784 2.35977 0 2.63092 0 2.93815C0 3.24538 0.118156 3.51653 0.354096 3.75235L16.8492 20.2481Z" fill="#C61143"/>
<path d="M33.2037 13.9465C32.9679 13.7106 32.6962 13.5928 32.3891 13.5928C32.0828 13.5928 31.8112 13.7106 31.5754 13.9465L17.6634 27.8579L3.75198 13.9462C3.51604 13.7102 3.24452 13.5924 2.93778 13.5924C2.63092 13.5924 2.3594 13.7102 2.12358 13.9462L0.354096 15.7163C0.117784 15.9522 0 16.2237 0 16.5303C0 16.8371 0.118156 17.1087 0.354096 17.3449L16.8492 33.8404C17.085 34.0763 17.3567 34.1942 17.6634 34.1942C17.9701 34.1942 18.2413 34.0763 18.477 33.8404L34.9734 17.3449C35.2092 17.109 35.3264 16.8374 35.3264 16.531C35.3264 16.2242 35.2085 15.9531 34.9734 15.7168L33.2037 13.9465Z" fill="#C61143"/>
</svg>
